# xmcd
#
# Track frame offsets: 
#        150
#        15636
#        30409
#        42608
#        54176
#        67718
#        79920
#        95386
#        109477
#        121241
#        139586
#        151461
#        163093
#        177412
#
# Disc length: 2503 seconds
#
# Revision: 0
# Processed by: cddbd v1.5.2PL0 Copyright (c) Steve Scherf et al.
# Submitted via: ExactAudioCopy v0.99pb4
#
DISCID=b009c50e
DTITLE=Maywood - Maywood
DYEAR=1980
DGENRE=Country
TTITLE0=Late At Night
TTITLE1=Wherever You're Going
TTITLE2=Let Me Know
TTITLE3=That Certain Feeling
TTITLE4=I Can't Let You Go Now
TTITLE5=Mother, How Are You Today
TTITLE6=Dance With Me
TTITLE7=You Treated Me Wrong
TTITLE8=I'd Climb The Highest Mountain
TTITLE9=Give Me Back My Love
TTITLE10=One Two Three
TTITLE11=I'm Sorry
TTITLE12=Since I Meet You (Bonus)
TTITLE13=If You And I (Bonus)
EXTD=
EXTT0=
EXTT1=
EXTT2=
EXTT3=
EXTT4=
EXTT5=
EXTT6=
EXTT7=
EXTT8=
EXTT9=
EXTT10=
EXTT11=
EXTT12=
EXTT13=
PLAYORDER=
